<?xml version="1.0" encoding="UTF-8" standalone="no"?><svg xmlns="http://www.w3.org/2000/svg" xmlns:xlink="http://www.w3.org/1999/xlink" contentScriptType="application/ecmascript" contentStyleType="text/css" height="969px" preserveAspectRatio="none" style="width:732px;height:969px;" version="1.1" viewBox="0 0 732 969" width="732px" zoomAndPan="magnify"><defs><filter height="300%" id="f1vumqr1b394qg" width="300%" x="-1" y="-1"><feGaussianBlur result="blurOut" stdDeviation="2.0"/><feColorMatrix in="blurOut" result="blurOut2" type="matrix" values="0 0 0 0 0 0 0 0 0 0 0 0 0 0 0 0 0 0 .4 0"/><feOffset dx="4.0" dy="4.0" in="blurOut2" result="blurOut3"/><feBlend in="SourceGraphic" in2="blurOut3" mode="normal"/></filter></defs><g><!--MD5=[086b16851c9aaa4a99b79eac376d50da]
cluster Striker--><rect fill="#FFFFFF" filter="url(#f1vumqr1b394qg)" height="934" style="stroke: #000000; stroke-width: 1.5;" width="568" x="153" y="24"/><text fill="#000000" font-family="sans-serif" font-size="14" font-weight="bold" lengthAdjust="spacingAndGlyphs" textLength="53" x="410.5" y="38.9951">Striker</text><ellipse cx="254.4472" cy="172.0236" fill="#FEFECE" filter="url(#f1vumqr1b394qg)" rx="57.4472" ry="14.5236" style="stroke: #A80036; stroke-width: 1.5;"/><text fill="#000000" font-family="sans-serif" font-size="14" lengthAdjust="spacingAndGlyphs" textLength="77" x="215.9472" y="176.6721">Ball Anstoß</text><ellipse cx="583.3614" cy="204.0236" fill="#FEFECE" filter="url(#f1vumqr1b394qg)" rx="58.8614" ry="14.5236" style="stroke: #A80036; stroke-width: 1.5;"/><text fill="#000000" font-family="sans-serif" font-size="14" lengthAdjust="spacingAndGlyphs" textLength="79" x="543.8614" y="208.6721">BallPosition</text><ellipse cx="583.7362" cy="138.8472" fill="#FEFECE" filter="url(#f1vumqr1b394qg)" rx="62.2362" ry="14.8472" style="stroke: #A80036; stroke-width: 1.5;"/><text fill="#000000" font-family="sans-serif" font-size="14" lengthAdjust="spacingAndGlyphs" textLength="86" x="540.7362" y="143.4957">GoalPosition</text><ellipse cx="583.2904" cy="74.0236" fill="#FEFECE" filter="url(#f1vumqr1b394qg)" rx="51.7904" ry="14.5236" style="stroke: #A80036; stroke-width: 1.5;"/><text fill="#000000" font-family="sans-serif" font-size="14" lengthAdjust="spacingAndGlyphs" textLength="69" x="548.7904" y="78.6721">Spiel Start</text><ellipse cx="254.2758" cy="378.0552" fill="#FEFECE" filter="url(#f1vumqr1b394qg)" rx="68.2758" ry="16.0552" style="stroke: #A80036; stroke-width: 1.5;"/><text fill="#000000" font-family="sans-serif" font-size="14" lengthAdjust="spacingAndGlyphs" textLength="102" x="203.2758" y="382.7036">Schuss ins Tor</text><ellipse cx="583.7105" cy="414.2421" fill="#FEFECE" filter="url(#f1vumqr1b394qg)" rx="121.7105" ry="26.7421" style="stroke: #A80036; stroke-width: 1.5;"/><text fill="#000000" font-family="sans-serif" font-size="14" lengthAdjust="spacingAndGlyphs" textLength="223" x="472.2105" y="418.8905">Wenn Ball in gegnerischer Hälfte</text><ellipse cx="583.5794" cy="337.0159" fill="#FEFECE" filter="url(#f1vumqr1b394qg)" rx="65.5794" ry="15.5159" style="stroke: #A80036; stroke-width: 1.5;"/><text fill="#000000" font-family="sans-serif" font-size="14" lengthAdjust="spacingAndGlyphs" textLength="95" x="536.0794" y="341.6643">BallPosition_1</text><ellipse cx="583.2758" cy="270.0552" fill="#FEFECE" filter="url(#f1vumqr1b394qg)" rx="68.2758" ry="16.0552" style="stroke: #A80036; stroke-width: 1.5;"/><text fill="#000000" font-family="sans-serif" font-size="14" lengthAdjust="spacingAndGlyphs" textLength="102" x="532.2758" y="274.7036">GoalPosition_1</text><ellipse cx="254.728" cy="527.0456" fill="#FEFECE" filter="url(#f1vumqr1b394qg)" rx="85.728" ry="19.5456" style="stroke: #A80036; stroke-width: 1.5;"/><text fill="#000000" font-family="sans-serif" font-size="14" lengthAdjust="spacingAndGlyphs" textLength="144" x="182.728" y="531.694">Warten auf Mitspieler</text><ellipse cx="583.7042" cy="634.9408" fill="#FEFECE" filter="url(#f1vumqr1b394qg)" rx="102.7042" ry="22.9408" style="stroke: #A80036; stroke-width: 1.5;"/><text fill="#000000" font-family="sans-serif" font-size="14" lengthAdjust="spacingAndGlyphs" textLength="182" x="492.7042" y="639.5893">Wenn Ball im eigenen Feld</text><ellipse cx="583.4395" cy="559.0879" fill="#FEFECE" filter="url(#f1vumqr1b394qg)" rx="75.9395" ry="17.5879" style="stroke: #A80036; stroke-width: 1.5;"/><text fill="#000000" font-family="sans-serif" font-size="14" lengthAdjust="spacingAndGlyphs" textLength="121" x="522.9395" y="563.7363">MitspielerPosition</text><ellipse cx="583.5794" cy="491.0159" fill="#FEFECE" filter="url(#f1vumqr1b394qg)" rx="65.5794" ry="15.5159" style="stroke: #A80036; stroke-width: 1.5;"/><text fill="#000000" font-family="sans-serif" font-size="14" lengthAdjust="spacingAndGlyphs" textLength="95" x="536.0794" y="495.6643">BallPosition_2</text><ellipse cx="254.5624" cy="776.0236" fill="#FEFECE" filter="url(#f1vumqr1b394qg)" rx="39.0624" ry="14.5236" style="stroke: #A80036; stroke-width: 1.5;"/><text fill="#000000" font-family="sans-serif" font-size="14" lengthAdjust="spacingAndGlyphs" textLength="51" x="229.0624" y="780.6721">Passen</text><ellipse cx="583.2652" cy="917.153" fill="#FEFECE" filter="url(#f1vumqr1b394qg)" rx="113.7652" ry="25.153" style="stroke: #A80036; stroke-width: 1.5;"/><text fill="#000000" font-family="sans-serif" font-size="14" lengthAdjust="spacingAndGlyphs" textLength="206" x="480.2652" y="921.8015">Wenn zu viele Gegner vor ihm</text><ellipse cx="583.466" cy="841.9932" fill="#FEFECE" filter="url(#f1vumqr1b394qg)" rx="62.966" ry="14.9932" style="stroke: #A80036; stroke-width: 1.5;"/><text fill="#000000" font-family="sans-serif" font-size="14" lengthAdjust="spacingAndGlyphs" textLength="88" x="539.466" y="846.6416">obstacleMap</text><ellipse cx="583.5794" cy="776.0159" fill="#FEFECE" filter="url(#f1vumqr1b394qg)" rx="65.5794" ry="15.5159" style="stroke: #A80036; stroke-width: 1.5;"/><text fill="#000000" font-family="sans-serif" font-size="14" lengthAdjust="spacingAndGlyphs" textLength="95" x="536.0794" y="780.6643">BallPosition_3</text><ellipse cx="583.2758" cy="709.0552" fill="#FEFECE" filter="url(#f1vumqr1b394qg)" rx="68.2758" ry="16.0552" style="stroke: #A80036; stroke-width: 1.5;"/><text fill="#000000" font-family="sans-serif" font-size="14" lengthAdjust="spacingAndGlyphs" textLength="102" x="532.2758" y="713.7036">GoalPosition_2</text><!--MD5=[6c38719efac2ec1b638bc34acaf91028]
entity Trainer--><ellipse cx="30" cy="449.5" fill="#FEFECE" filter="url(#f1vumqr1b394qg)" rx="8" ry="8" style="stroke: #A80036; stroke-width: 2.0;"/><path d="M30,457.5 L30,484.5 M17,465.5 L43,465.5 M30,484.5 L17,499.5 M30,484.5 L43,499.5 " fill="none" filter="url(#f1vumqr1b394qg)" style="stroke: #A80036; stroke-width: 2.0;"/><text fill="#000000" font-family="sans-serif" font-size="14" lengthAdjust="spacingAndGlyphs" textLength="48" x="6" y="519.4951">Trainer</text><!--MD5=[4c1177cecc4dc19ee2ff76159d813f21]
link Trainer to Ball Anstoß--><path d="M54.18,448.81 C101.93,382.49 209.6,232.97 243.25,186.24 " fill="none" id="Trainer-Ball Anstoß" style="stroke: #A80036; stroke-width: 1.0;"/><!--MD5=[526bc288c0a251f2839266c48f615c7c]
link Ball Anstoß to BallPosition--><path d="M290.92,183.26 C313.34,189.8 343.06,197.45 370,201 C420.27,207.63 477.8,208 520.31,206.93 " fill="none" id="Ball Anstoß-&gt;BallPosition" style="stroke: #A80036; stroke-width: 1.0; stroke-dasharray: 7.0,7.0;"/><polygon fill="#A80036" points="525.42,206.79,516.3094,203.0487,520.422,206.9328,516.5379,211.0454,525.42,206.79" style="stroke: #A80036; stroke-width: 1.0;"/><text fill="#000000" font-family="sans-serif" font-size="13" lengthAdjust="spacingAndGlyphs" textLength="39" x="381.5" y="197.0669">needs</text><!--MD5=[65e5e0a6116acb9064b406e4194ddf8d]
link Ball Anstoß to GoalPosition--><path d="M308.04,166.7 C366.07,160.84 459.43,151.42 520.87,145.22 " fill="none" id="Ball Anstoß-&gt;GoalPosition" style="stroke: #A80036; stroke-width: 1.0; stroke-dasharray: 7.0,7.0;"/><polygon fill="#A80036" points="525.98,144.7,516.6249,141.6207,521.0051,145.2003,517.4255,149.5806,525.98,144.7" style="stroke: #A80036; stroke-width: 1.0;"/><text fill="#000000" font-family="sans-serif" font-size="13" lengthAdjust="spacingAndGlyphs" textLength="32" x="385" y="151.0669">need</text><!--MD5=[be582375d48ff9046016ec456a9a495c]
link Ball Anstoß to Spiel Start--><path d="M286.33,159.8 C309.23,150.95 341.32,139.02 370,130 C427.47,111.93 494.9,94.84 538.13,84.4 " fill="none" id="Ball Anstoß-&gt;Spiel Start" style="stroke: #A80036; stroke-width: 1.0; stroke-dasharray: 7.0,7.0;"/><polygon fill="#A80036" points="543.02,83.23,533.333,81.4516,538.1594,84.4023,535.2087,89.2286,543.02,83.23" style="stroke: #A80036; stroke-width: 1.0;"/><text fill="#000000" font-family="sans-serif" font-size="13" lengthAdjust="spacingAndGlyphs" textLength="60" x="371" y="109.0669">Condition</text><!--MD5=[43480de29b96742e90641b899f4b7862]
link Trainer to Schuss ins Tor--><path d="M54.39,470.17 C94.78,451.47 177.59,413.14 222.64,392.28 " fill="none" id="Trainer-Schuss ins Tor" style="stroke: #A80036; stroke-width: 1.0;"/><!--MD5=[777cbac13d88c1156b6f35a357cc58bd]
link Schuss ins Tor to Wenn Ball in gegnerischer Hälfte--><path d="M296.68,390.71 C318.29,396.8 345.33,403.51 370,407 C397.87,410.94 427.99,413.16 456.55,414.32 " fill="none" id="Schuss ins Tor-&gt;Wenn Ball in gegnerischer Hälfte" style="stroke: #A80036; stroke-width: 1.0; stroke-dasharray: 7.0,7.0;"/><polygon fill="#A80036" points="461.86,414.53,453.0151,410.1978,456.8635,414.3439,452.7173,418.1922,461.86,414.53" style="stroke: #A80036; stroke-width: 1.0;"/><text fill="#000000" font-family="sans-serif" font-size="13" lengthAdjust="spacingAndGlyphs" textLength="58" x="372" y="403.0669">condition</text><!--MD5=[a1049a39050fde407e5cc156b223c6fb]
link Schuss ins Tor to BallPosition_1--><path d="M315.1,370.53 C373.12,363.25 460.96,352.24 519.97,344.84 " fill="none" id="Schuss ins Tor-&gt;BallPosition_1" style="stroke: #A80036; stroke-width: 1.0; stroke-dasharray: 7.0,7.0;"/><polygon fill="#A80036" points="525.23,344.18,515.7983,341.3439,520.2697,344.809,516.8047,349.2804,525.23,344.18" style="stroke: #A80036; stroke-width: 1.0;"/><text fill="#000000" font-family="sans-serif" font-size="13" lengthAdjust="spacingAndGlyphs" textLength="39" x="381.5" y="353.0669">needs</text><!--MD5=[ad3aeab9e01b94ff4b91f7f4773ad5ba]
link Schuss ins Tor to GoalPosition_1--><path d="M288.28,363.95 C311.02,354.42 342.12,341.82 370,332 C424.62,312.76 488.57,294.69 531.94,283.07 " fill="none" id="Schuss ins Tor-&gt;GoalPosition_1" style="stroke: #A80036; stroke-width: 1.0; stroke-dasharray: 7.0,7.0;"/><polygon fill="#A80036" points="536.86,281.76,527.1338,280.2104,532.0284,283.0465,529.1923,287.9411,536.86,281.76" style="stroke: #A80036; stroke-width: 1.0;"/><text fill="#000000" font-family="sans-serif" font-size="13" lengthAdjust="spacingAndGlyphs" textLength="39" x="381.5" y="309.0669">needs</text><!--MD5=[85f6d9719919566a4023dfc0911dfc71]
link Trainer to Warten auf Mitspieler--><path d="M54.39,485.84 C86.41,492.46 145.1,504.59 190.49,513.97 " fill="none" id="Trainer-Warten auf Mitspieler" style="stroke: #A80036; stroke-width: 1.0;"/><!--MD5=[e40e8ae1652d73e37a5afb9badb9ff6d]
link Warten auf Mitspieler to Wenn Ball im eigenen Feld--><path d="M285.13,545.28 C307.68,558.5 339.88,575.92 370,587 C410,601.71 455.96,612.77 494.89,620.55 " fill="none" id="Warten auf Mitspieler-&gt;Wenn Ball im eigenen Feld" style="stroke: #A80036; stroke-width: 1.0; stroke-dasharray: 7.0,7.0;"/><polygon fill="#A80036" points="500.09,621.57,492.0397,615.8962,495.1855,620.5977,490.484,623.7434,500.09,621.57" style="stroke: #A80036; stroke-width: 1.0;"/><text fill="#000000" font-family="sans-serif" font-size="13" lengthAdjust="spacingAndGlyphs" textLength="54" x="374" y="583.0669">confition</text><!--MD5=[53af3becc2d37caa9bbac30fc003ee7e]
link Warten auf Mitspieler to MitspielerPosition--><path d="M306.3,542.58 C326,547.9 348.86,553.21 370,556 C413.76,561.77 463.03,562.8 503.09,562.26 " fill="none" id="Warten auf Mitspieler-&gt;MitspielerPosition" style="stroke: #A80036; stroke-width: 1.0; stroke-dasharray: 7.0,7.0;"/><polygon fill="#A80036" points="508.43,562.18,499.3738,558.309,503.4305,562.2514,499.4881,566.3082,508.43,562.18" style="stroke: #A80036; stroke-width: 1.0;"/><text fill="#000000" font-family="sans-serif" font-size="13" lengthAdjust="spacingAndGlyphs" textLength="39" x="381.5" y="552.0669">needs</text><!--MD5=[191c2b03b86f7ec650eaf1ee0e31a8e0]
link Warten auf Mitspieler to BallPosition_2--><path d="M331.75,518.61 C388.52,512.36 465.13,503.92 518.68,498.03 " fill="none" id="Warten auf Mitspieler-&gt;BallPosition_2" style="stroke: #A80036; stroke-width: 1.0; stroke-dasharray: 7.0,7.0;"/><polygon fill="#A80036" points="523.79,497.46,514.4005,494.4872,518.8211,498.0169,515.2915,502.4375,523.79,497.46" style="stroke: #A80036; stroke-width: 1.0;"/><text fill="#000000" font-family="sans-serif" font-size="13" lengthAdjust="spacingAndGlyphs" textLength="39" x="381.5" y="504.0669">needs</text><!--MD5=[e1e2a6e8fc9657cdba888f141b222b7d]
link Trainer to Passen--><path d="M54.18,511.74 C101.82,574.9 209.09,717.13 243.01,762.09 " fill="none" id="Trainer-Passen" style="stroke: #A80036; stroke-width: 1.0;"/><text fill="#000000" font-family="sans-serif" font-size="13" lengthAdjust="spacingAndGlyphs" textLength="51" x="85" y="549.0669">optional</text><!--MD5=[5ecc58269f2a80c968939345635eda6a]
link Passen to Wenn zu viele Gegner vor ihm--><path d="M276.21,788.22 C298.84,801.33 336.37,822.39 370,838 C416.92,859.78 471.68,880.02 513.85,894.56 " fill="none" id="Passen-&gt;Wenn zu viele Gegner vor ihm" style="stroke: #A80036; stroke-width: 1.0; stroke-dasharray: 7.0,7.0;"/><polygon fill="#A80036" points="518.67,896.22,511.445,889.5268,513.9381,894.6046,508.8603,897.0978,518.67,896.22" style="stroke: #A80036; stroke-width: 1.0;"/><text fill="#000000" font-family="sans-serif" font-size="13" lengthAdjust="spacingAndGlyphs" textLength="54" x="374" y="834.0669">confition</text><!--MD5=[7d43acb7499285dac2decc70684a0c1b]
link Passen to obstacleMap--><path d="M288.52,783.43 C311.37,788.52 342.5,795.35 370,801 C423.58,812.02 484.94,823.76 527.91,831.85 " fill="none" id="Passen-&gt;obstacleMap" style="stroke: #A80036; stroke-width: 1.0; stroke-dasharray: 7.0,7.0;"/><polygon fill="#A80036" points="533.05,832.81,524.9335,827.2313,528.1343,831.8955,523.4702,835.0963,533.05,832.81" style="stroke: #A80036; stroke-width: 1.0;"/><text fill="#000000" font-family="sans-serif" font-size="13" lengthAdjust="spacingAndGlyphs" textLength="39" x="381.5" y="797.0669">needs</text><!--MD5=[bdfd0ea7f3e1ab83f0d7800dbcd8ac17]
link Passen to BallPosition_3--><path d="M293.65,776 C347.26,776 445.81,776 512.72,776 " fill="none" id="Passen-&gt;BallPosition_3" style="stroke: #A80036; stroke-width: 1.0; stroke-dasharray: 7.0,7.0;"/><polygon fill="#A80036" points="517.89,776,508.89,772,512.89,776,508.89,780,517.89,776" style="stroke: #A80036; stroke-width: 1.0;"/><text fill="#000000" font-family="sans-serif" font-size="13" lengthAdjust="spacingAndGlyphs" textLength="39" x="381.5" y="772.0669">needs</text><!--MD5=[5c8d76c9e8fa20e31ddbfa158137dffa]
link Passen to GoalPosition_2--><path d="M288.96,769.14 C344.88,757.69 457.92,734.53 526.24,720.53 " fill="none" id="Passen-&gt;GoalPosition_2" style="stroke: #A80036; stroke-width: 1.0; stroke-dasharray: 7.0,7.0;"/><polygon fill="#A80036" points="531.49,719.45,521.866,717.3573,526.5938,720.4635,523.4876,725.1913,531.49,719.45" style="stroke: #A80036; stroke-width: 1.0;"/><text fill="#000000" font-family="sans-serif" font-size="13" lengthAdjust="spacingAndGlyphs" textLength="39" x="381.5" y="737.0669">needs</text><!--MD5=[53387ee3c7a6282d866f9b3ecdd11553]
@startuml

left to right direction

:Trainer:

rectangle Striker {
    Trainer - - (Ball Anstoß)
    (Ball Anstoß) ..> (BallPosition) : needs
    (Ball Anstoß) ..> (GoalPosition) : need
    (Ball Anstoß) ..> (Spiel Start) : Condition
    Trainer - - (Schuss ins Tor)
    (Schuss ins Tor) ..> (Wenn Ball in gegnerischer Hälfte) : condition
    (Schuss ins Tor) ..> (BallPosition_1) : needs
    (Schuss ins Tor) ..> (GoalPosition_1) : needs
    Trainer - - (Warten auf Mitspieler)
    (Warten auf Mitspieler) ..> (Wenn Ball im eigenen Feld) : confition
    (Warten auf Mitspieler) ..> (MitspielerPosition) : needs
    (Warten auf Mitspieler) ..> (BallPosition_2) : needs
    Trainer - - (Passen) : optional
    (Passen) ..> (Wenn zu viele Gegner vor ihm) : confition
    (Passen) ..> (obstacleMap) : needs
    (Passen) ..> (BallPosition_3) : needs
    (Passen) ..> (GoalPosition_2) : needs
}

@enduml

PlantUML version 1.2019.12(Sun Nov 03 10:24:54 GMT 2019)
(APACHE source distribution)
Java Runtime: OpenJDK Runtime Environment
JVM: OpenJDK 64-Bit Server VM
Java Version: 1.8.0_242-b08
Operating System: Linux
Default Encoding: UTF-8
Language: en
Country: US
--></g></svg>